<svg xmlns="http://www.w3.org/2000/svg" xmlns:xlink="http://www.w3.org/1999/xlink" version="1.1" x="0px" y="0px" viewBox="161.945 0 597.5 744.1012499999999" enable-background="new 161.945 0 597.5 595.281" xml:space="preserve"><polygon points="538.655,292.5 538.655,298.3 440.834,396.121 435.044,396.121 "/><polygon points="538.655,272.02 538.655,277.82 420.355,396.121 414.565,396.121 "/><polygon points="538.655,251.53 538.655,257.33 399.865,396.121 394.075,396.121 "/><polygon points="538.655,231.05 538.655,236.85 391.705,383.8 391.705,378.01 "/><polygon points="538.655,210.57 538.655,216.36 410.165,344.85 392.895,362.121 391.705,363.31 391.705,357.52 413.695,335.53 "/><polygon points="538.655,282.26 538.655,288.06 430.595,396.121 424.805,396.121 "/><polygon points="538.655,261.77 538.655,267.57 410.105,396.121 404.315,396.121 "/><polygon points="538.655,241.3 538.655,247.09 391.705,394.041 391.705,388.25 "/><polygon points="538.655,220.82 538.655,226.61 391.705,373.56 391.705,367.77 "/><polygon points="538.655,200.33 538.655,206.12 414.665,330.121 391.705,353.07 391.705,347.28 414.915,324.07 "/><polygon points="538.655,374.44 538.655,380.23 522.775,396.121 516.985,396.121 "/><polygon points="538.655,353.95 538.655,359.74 502.285,396.121 496.495,396.121 "/><polygon points="538.655,333.47 538.655,339.26 481.805,396.121 476.004,396.121 "/><polygon points="538.655,312.99 538.655,318.791 461.325,396.121 455.535,396.121 "/><path d="M538.635,384.7c-0.271,6.171-5.221,11.141-11.4,11.4L538.635,384.7z"/><polygon points="538.655,364.2 538.655,369.99 512.535,396.121 506.735,396.121 "/><polygon points="538.655,343.71 538.655,349.5 492.044,396.121 486.245,396.121 "/><polygon points="538.655,323.23 538.655,329.02 471.565,396.121 465.775,396.121 "/><polygon points="538.655,302.75 538.655,308.55 451.084,396.121 445.294,396.121 "/><polygon points="511.111,121.015 391.707,240.417 391.707,234.634 505.315,121.015 "/><polygon points="490.629,121.015 391.707,219.94 391.707,214.146 484.837,121.015 "/><polygon points="470.142,121.015 391.707,199.45 391.707,193.657 464.348,121.015 "/><polygon points="449.664,121.015 391.707,178.973 391.707,173.178 443.87,121.015 "/><polygon points="429.173,121.015 391.707,158.493 391.707,152.689 423.391,121.015 "/><polygon points="500.873,121.015 391.707,230.178 391.707,224.385 495.076,121.015 "/><polygon points="480.391,121.015 391.707,209.691 391.707,203.896 474.587,121.015 "/><polygon points="459.902,121.015 391.707,189.21 391.707,183.418 454.11,121.015 "/><polygon points="439.425,121.015 391.707,168.732 391.707,162.939 433.628,121.015 "/><polygon points="418.936,121.015 391.707,148.243 391.707,142.451 413.142,121.015 "/><path d="M408.475,121.237l-16.545,16.546C393.187,129.253,399.947,122.494,408.475,121.237z"/><polygon points="538.655,190.1 538.655,195.89 414.915,319.63 391.705,342.84 391.705,337.05 414.915,313.84 "/><polygon points="538.655,169.61 538.655,175.4 414.915,299.14 391.705,322.35 391.705,316.56 414.915,293.35 "/><polygon points="538.655,149.12 538.655,154.91 414.915,278.66 391.705,301.871 391.705,296.07 414.915,272.86 "/><polygon points="538.655,128.64 538.655,134.44 414.915,258.18 391.705,281.39 391.705,275.59 414.915,252.38 "/><polygon points="531.6,121.015 391.707,260.907 391.707,255.114 525.805,121.015 "/><polygon points="538.655,179.85 538.655,185.64 414.915,309.39 391.705,332.6 391.705,326.8 414.915,303.59 "/><polygon points="538.655,159.37 538.655,165.16 414.915,288.9 391.705,312.11 391.705,306.32 414.915,283.11 "/><polygon points="538.655,138.88 538.655,144.68 414.915,268.41 391.705,291.62 391.705,285.83 414.915,262.62 "/><polygon points="538.655,121.01 538.655,124.2 414.915,247.94 391.705,271.15 391.705,265.35 414.915,242.14 536.044,121.01 "/><polygon points="521.357,121.015 391.707,250.667 391.707,244.863 515.557,121.015 "/><path d="M538.655,80.11v19.23h-127.46c-19.65,0-36.64,14-40.38,33.28c-0.52,2.65-0.79,5.3-0.79,7.88v255.621h-111.78  c-6.61,0-11.96-5.351-11.96-11.95V82.05c0-6.6,5.35-11.96,11.96-11.96h268.61C532.794,70.09,537.725,74.43,538.655,80.11z"/><path d="M592.285,103.32h-181.09c-17.75,0-33.08,12.64-36.47,30.07c-0.47,2.4-0.71,4.79-0.71,7.11v337.77  c0,20.51,16.67,37.18,37.17,37.18h181.09c17.75,0,33.08-12.64,36.47-30.06c0.46-2.4,0.7-4.79,0.7-7.12V140.5  C629.445,120,612.775,103.32,592.285,103.32z M615.745,478.27c0,12.95-10.52,23.48-23.47,23.48h-181.09  c-12.95,0-23.48-10.53-23.48-23.48V364.42l0.02-223.92c0-12.95,10.52-23.47,23.47-23.47h181.09c12.95,0,23.47,10.52,23.47,23.47  L615.745,478.27z"/><circle cx="501.986" cy="478.136" r="11.523"/><text x="161.945" y="610.281" fill="#000000" font-size="5px" font-weight="bold" font-family="'Helvetica Neue', Helvetica, Arial-Unicode, Arial, Sans-serif">Created by Bob Holzer</text><text x="161.945" y="615.281" fill="#000000" font-size="5px" font-weight="bold" font-family="'Helvetica Neue', Helvetica, Arial-Unicode, Arial, Sans-serif">from the Noun Project</text></svg>