<svg xmlns="http://www.w3.org/2000/svg" xmlns:xlink="http://www.w3.org/1999/xlink" viewBox="0 0 56 70" version="1.1" x="0px" y="0px"><title>033 - Eye Analysis</title><desc>Created with Sketch.</desc><g stroke="none" stroke-width="1" fill="none" fill-rule="evenodd"><g transform="translate(-1.000000, 0.000000)" fill="#000000" fill-rule="nonzero"><path d="M19.5,49 L12.91,49 C12.3901352,45.9244382 9.60042566,43.7601708 6.49216266,44.0210169 C3.38389965,44.281863 0.993920217,46.8808111 0.993920217,50 C0.993920217,53.1191889 3.38389965,55.718137 6.49216266,55.9789831 C9.60042566,56.2398292 12.3901352,54.0755618 12.91,51 L20,51 C20.314252,50.9978754 20.6097492,50.8501268 20.8,50.6 L25.3,44.6 C24.5920435,44.4626207 23.8938742,44.278892 23.21,44.05 L19.5,49 Z M4.71,52.71 C4.31564426,53.0966923 3.68435574,53.0966923 3.29,52.71 C3.20173502,52.6127487 3.13071541,52.5011465 3.08,52.38 C3.02864921,52.2598123 3.00146553,52.1306898 3,52 C3.00384009,51.7352649 3.10740043,51.4817206 3.29,51.29 C3.38563545,51.1996396 3.49763964,51.1283642 3.62,51.08 C3.86346882,50.9800198 4.13653118,50.9800198 4.38,51.08 C4.50358095,51.1259399 4.61604365,51.1975071 4.71,51.29 C5.09665488,51.684371 5.09665488,52.315629 4.71,52.71 Z M5,49 C4.44771525,49 4,48.5522847 4,48 C4,47.4477153 4.44771525,47 5,47 L9,47 C9.55228475,47 10,47.4477153 10,48 C10,48.5522847 9.55228475,49 9,49 L5,49 Z M10,53 L8,53 C7.44771525,53 7,52.5522847 7,52 C7,51.4477153 7.44771525,51 8,51 L10,51 C10.5522847,51 11,51.4477153 11,52 C11,52.5522847 10.5522847,53 10,53 Z"/><path d="M39,29 C38.9923808,34.322109 34.8247102,38.7093618 29.51,38.99 L29.5,38.99 L25.3,44.6 C26.5157507,44.8635985 27.756003,44.9976798 29,45 C41.22,45 51.61,31.91 53.77,29 C51.86,26.44 43.5,15.9 33.16,13.5 L30.52,19.12 C35.3932011,19.8771479 38.9904994,24.0683399 39,29 Z M39.77,37.94 C38.3199971,39.6770154 36.475265,41.0417057 34.39,41.92 C34.2675031,41.9751405 34.1343127,42.0024616 34,42 C33.5248537,41.9996249 33.1156099,41.664882 33.0210273,41.1992445 C32.9264447,40.7336069 33.1726552,40.2657248 33.61,40.08 C35.4005198,39.3244296 36.9845228,38.151856 38.23,36.66 C38.5845804,36.2389437 39.2125579,36.1830846 39.6358899,36.5349449 C40.0592219,36.8868053 40.1191257,37.5144099 39.77,37.94 Z M37.68,19.28 C37.8707999,19.0966913 38.1266963,18.996834 38.3912242,19.0024623 C38.6557521,19.0080905 38.9071696,19.1187417 39.09,19.31 C41.6026451,21.9094177 43.0049553,25.3847084 43,29 C43,29.5522847 42.5522847,30 42,30 C41.4477153,30 41,29.5522847 41,29 C41.0037541,25.9002813 39.8025058,22.9204683 37.65,20.69 C37.4667137,20.4991888 37.3668716,20.2432971 37.3724997,19.9787766 C37.3781278,19.7142561 37.4887636,19.4628426 37.68,19.28 Z"/><path d="M21,29 C21,33.418278 24.581722,37 29,37 C33.418278,37 37,33.418278 37,29 C37,24.581722 33.418278,21 29,21 C24.5841567,21.0058724 21.0058724,24.5841567 21,29 Z M34,29 C34,31.7614237 31.7614237,34 29,34 C26.2385763,34 24,31.7614237 24,29 C24,26.2385763 26.2385763,24 29,24 C31.7610099,24.0009989 33.9990011,26.2389901 34,29 Z"/><path d="M19,29 C19.0079092,23.7286757 23.100006,19.3655213 28.36,19.02 L31.13,13.14 C30.4237167,13.0479105 29.7122607,13.0011482 29,13 C16.78,13 6.39,26.09 4.23,29 C6.04,31.43 13.63,41 23.21,44.05 L27.13,38.82 C22.4187324,37.914793 19.0099591,33.7974308 19,29 Z M17.32,26.23 C17.1083463,27.1381606 17.0009856,28.0675022 17,29 C17,29.31 17.01,29.62 17.04,29.92 C17.0782496,30.4739965 16.6635374,30.9555978 16.11,31 L16.04,31 C15.5179695,31.0004832 15.0829456,30.6002613 15.04,30.08 C15.01,29.72 15,29.36 15,29 C15.0006249,27.9122192 15.1281536,26.8282253 15.38,25.77 C15.5084085,25.2358555 16.0447447,24.9062648 16.5792859,25.0330117 C17.1138271,25.1597586 17.445084,25.6950672 17.32,26.23 Z M18.05,23 C17.8581499,23.0011579 17.6702523,22.9454845 17.51,22.84 C17.2859643,22.6978474 17.1281567,22.4719267 17.071793,22.2126537 C17.0154293,21.9533807 17.0652006,21.6823342 17.21,21.46 C18.7422843,19.0537872 20.9762208,17.1758843 23.61,16.08 C24.1181339,15.8698914 24.7009129,16.1056723 24.92,16.61 C25.0256407,16.8537646 25.0290203,17.1297305 24.9293809,17.376009 C24.8297415,17.6222876 24.6354216,17.8182683 24.39,17.92 C22.1291593,18.8642903 20.210356,20.4760851 18.89,22.54 C18.708106,22.8279777 18.390607,23.0018462 18.05,23 Z"/><circle cx="29" cy="29" r="3"/><path d="M56,0 L44,0 C43.4483991,0.00164740056 43.0016474,0.448399067 43,1 L43,2 L37,2 C36.6140454,1.99659819 36.2618965,2.21962584 36.1,2.57 L31.13,13.14 C31.8132485,13.2193547 32.4911294,13.33957 33.16,13.5 L37.63,4 L43,4 L43,5 C43.0016474,5.55160093 43.4483991,5.9983526 44,6 L56,6 C56.5516009,5.9983526 56.9983526,5.55160093 57,5 L57,1 C56.9983526,0.448399067 56.5516009,0.00164740056 56,0 Z M49,4 L46,4 C45.4477153,4 45,3.55228475 45,3 C45,2.44771525 45.4477153,2 46,2 L49,2 C49.5522847,2 50,2.44771525 50,3 C50,3.55228475 49.5522847,4 49,4 Z M54,4 L53,4 C52.4477153,4 52,3.55228475 52,3 C52,2.44771525 52.4477153,2 53,2 L54,2 C54.5522847,2 55,2.44771525 55,3 C55,3.55228475 54.5522847,4 54,4 Z"/></g></g><text x="0" y="71" fill="#000000" font-size="5px" font-weight="bold" font-family="'Helvetica Neue', Helvetica, Arial-Unicode, Arial, Sans-serif">Created by Ben Davis</text><text x="0" y="76" fill="#000000" font-size="5px" font-weight="bold" font-family="'Helvetica Neue', Helvetica, Arial-Unicode, Arial, Sans-serif">from the Noun Project</text></svg>