<svg xmlns="http://www.w3.org/2000/svg" xmlns:xlink="http://www.w3.org/1999/xlink" viewBox="0 0 50 70" version="1.1" x="0px" y="0px"><title>030 - Smart Kettle</title><desc>Created with Sketch.</desc><g stroke="none" stroke-width="1" fill="none" fill-rule="evenodd"><g transform="translate(-1.000000, 0.000000)" fill="#000000" fill-rule="nonzero"><path d="M1.15,6.47 C0.963983034,6.7665092 0.948766377,7.13931731 1.11,7.45 L7,17.36 L7,5.99999209 L2,6 C1.65432337,5.99862563 1.33263015,6.17650306 1.15,6.47 Z"/><path d="M23.54,0 C16.39,0 10.8,1.95 9.37,4 L40.45,4 C38.46,2.04 31.2,0 23.54,0 Z"/><path d="M9,53 C9.00484937,54.6548414 10.3451586,55.9951506 12,56 L38,56 C39.6548414,55.9951506 40.9951506,54.6548414 41,53 L41,50 L9,50 L9,53 Z"/><path d="M48,6 L43,6 L43,8 L46,8 C47.6548505,8.00482753 48.9951725,9.3451495 49,11 L49,21.87 C48.9965365,22.9231154 48.4428222,23.8978044 47.54,24.44 L43,26.63 L43,30.26 L49.71,26.32 C50.5237351,25.766794 51.0076694,24.8439425 51,23.86 L51,9 C50.9951725,7.3451495 49.6548505,6.00482753 48,6 Z"/><path d="M9,48 L41,48 L41,6 L9,6 L9,48 Z M11,26 C11.0015983,25.4483786 11.4483786,25.0015983 12,25 L18,25 L18,23 L15,23 C14.6392795,22.9992184 14.3068923,22.8043708 14.13,22.49 L12.13,18.9 C11.8593805,18.4195123 12.0295123,17.8106196 12.51,17.54 C12.9904877,17.2693805 13.5993805,17.4395123 13.87,17.92 L15.59009,21 L18.28,21 C18.6351926,20.3849987 19.2898106,20.0044068 20,20 L20,17.51 L16.83008,15.22 C16.6150117,15.0663625 16.4698932,14.8334826 16.4267308,14.5727224 C16.3835684,14.3119623 16.4459079,14.0447428 16.6,13.83 C16.9238611,13.3811374 17.5495538,13.2783451 18,13.6 L21.58008,16.19 C21.8445031,16.3747233 22.0014413,16.6774473 22,17 L22,20 L24,20 L24,13 C24,12.4477153 24.4477153,12 25,12 C25.5522847,12 26,12.4477153 26,13 L26,20 L28,20 L28,17 C27.9985587,16.6774473 28.1554969,16.3747233 28.41992,16.19 L32,13.6 C32.4504462,13.2783451 33.0761389,13.3811374 33.4,13.83 C33.5540901,14.0447453 33.6164263,14.3119664 33.5732601,14.5727267 C33.530094,14.8334871 33.3849715,15.0663656 33.1699,15.22 L30,17.51 L30,20 C31.1032314,20.0032238 31.9967762,20.8967686 32,22 L34,22 C34.5522847,22 35,22.4477153 35,23 C35,23.5522847 34.5522847,24 34,24 L32,24 L32,26 L37,26 L37,22 C37,21.4477153 37.4477153,21 38,21 C38.5522847,21 39,21.4477153 39,22 L39,27 C38.9984017,27.5516214 38.5516214,27.9984017 38,28 L32,28 L32,30 L35,30 C35.5516214,30.0015983 35.9984017,30.4483786 36,31 L36,34 C36,34.5522847 35.5522847,35 35,35 C34.4477153,35 34,34.5522847 34,34 L34,32 L32,32 C31.9967543,33.1032223 31.1032223,33.9967543 30,34 L30,37 C30,37.5522847 29.5522847,38 29,38 C28.4477153,38 28,37.5522847 28,37 L28,34 L26,34 L26,41 C25.9984017,41.5516214 25.5516214,41.9984017 25,42 L20,42 C19.4477153,42 19,41.5522847 19,41 C19,40.4477153 19.4477153,40 20,40 L24,40 L24,34 L22,34 L22,37 C22,37.5522847 21.5522847,38 21,38 C20.4477153,38 20,37.5522847 20,37 L20,34 C18.8967777,33.9967543 18.0032457,33.1032223 18,32 L16,32 L16,34 C16,34.5522847 15.5522847,35 15,35 C14.4477153,35 14,34.5522847 14,34 L14,31 C14.0015983,30.4483786 14.4483786,30.0015983 15,30 L18,30 L18,27 L13,27 L13,29 C13,29.5522847 12.5522847,30 12,30 C11.4477153,30 11,29.5522847 11,29 L11,26 Z"/><path d="M30,22 L20,22 L20,32 L30,32 L30,22 Z M23.91992,29.37988 C23.8692191,29.5010581 23.7981984,29.612689 23.70992,29.70996 C23.3156067,30.0966801 22.6843133,30.0966801 22.29,29.70996 C22.2017216,29.612689 22.1307009,29.5010581 22.08,29.37988 C22.0287595,29.2596996 22.0015801,29.1306385 22,29 C22.0034659,28.7351888 22.1070799,28.4815131 22.29,28.29 C22.6881626,27.9128199 23.3117574,27.9128199 23.70992,28.29 C23.8924856,28.4817492 23.9960646,28.7352691 24,29 C23.9983945,29.1306438 23.971188,29.2597052 23.91992,29.37988 Z M23.71,25.71 C23.518137,25.8923794 23.2646826,25.995903 23,26 C22.8693562,25.9983945 22.7402948,25.971188 22.62012,25.91992 C22.4977688,25.8714911 22.38575,25.8002237 22.29004,25.70992 C21.901839,25.3185671 21.9035417,24.6868733 22.2938469,24.2976189 C22.684152,23.9083644 23.315848,23.9083644 23.7061531,24.2976189 C24.0964583,24.6868733 24.098161,25.3185671 23.70996,25.70992 L23.71,25.71 Z M27.92,29.37992 C27.8693653,29.5034241 27.794677,29.6156265 27.70028,29.71 C27.6541864,29.754707 27.603811,29.7947762 27.54988,29.82963 C27.4988917,29.8693425 27.4413988,29.8999059 27.37996,29.91996 C27.320146,29.9501391 27.2558352,29.9704221 27.18953,29.98002 C27.1269556,29.9915053 27.0635939,29.9981848 27,30 C26.7352796,29.9960882 26.4817604,29.8925381 26.29,29.71 C26.2017216,29.612729 26.1307009,29.5010981 26.08,29.37992 C25.9732265,29.1377502 25.9732265,28.8618398 26.08,28.61967 C26.1307093,28.4986438 26.2017319,28.3871754 26.29,28.29008 C26.5285251,28.0599715 26.8635872,27.9593869 27.18941,28.02008 C27.25574,28.0292878 27.3200872,28.0494168 27.37984,28.07965 C27.4412788,28.0997041 27.4987717,28.1302675 27.54976,28.16998 C27.7168159,28.2778381 27.8461691,28.4350072 27.91988,28.61969 C28.0266535,28.8618598 28.0266535,29.1377702 27.91988,29.37994 L27.92,29.37992 Z M27.7002,25.71 C27.6541064,25.754707 27.603731,25.7947762 27.5498,25.82963 C27.4988117,25.8693425 27.4413188,25.8999059 27.37988,25.91996 C27.320066,25.9501391 27.2557552,25.9704221 27.18945,25.98002 C27.1269019,25.9915013 27.0635671,25.9981808 27,26 C26.7352796,25.9960882 26.4817604,25.8925381 26.29,25.71 C26.1055012,25.5195142 26.0016194,25.265183 26,25 C26.0034659,24.7351888 26.1070799,24.4815131 26.29,24.29 C26.5259564,24.0555398 26.8633344,23.95426 27.18941,24.02 C27.25574,24.0292078 27.3200872,24.0493368 27.37984,24.07957 C27.4412788,24.0996241 27.4987717,24.1301875 27.54976,24.1699 C27.6058934,24.2017888 27.6566496,24.2423262 27.70016,24.29002 C27.8892506,24.4782659 27.9969148,24.7332 28,25 C27.9988208,25.2671918 27.8908788,25.5228251 27.7002,25.71 Z"/><path d="M43,50 L49,50 C50.1045695,50 51,50.8954305 51,52 C51,53.1045695 50.1045695,54 49,54 L43,54 L43,50 Z"/></g></g><text x="0" y="71" fill="#000000" font-size="5px" font-weight="bold" font-family="'Helvetica Neue', Helvetica, Arial-Unicode, Arial, Sans-serif">Created by Ben Davis</text><text x="0" y="76" fill="#000000" font-size="5px" font-weight="bold" font-family="'Helvetica Neue', Helvetica, Arial-Unicode, Arial, Sans-serif">from the Noun Project</text></svg>