<svg xmlns="http://www.w3.org/2000/svg" xmlns:xlink="http://www.w3.org/1999/xlink" version="1.1" x="0px" y="0px" viewBox="0 0 66 82.5" enable-background="new 0 0 66 66" xml:space="preserve"><g><g><g><path d="M37.3,26.1c0,2.4-1.9,4.3-4.3,4.3c-2.4,0-4.3-1.9-4.3-4.3c0-2.4,1.9-4.3,4.3-4.3C35.4,21.8,37.3,23.8,37.3,26.1z"/></g><g><path d="M47,14.4c-0.4,0.4-1,0.4-1.4,0C42.2,11,37.8,9.2,33,9.2s-9.2,1.8-12.5,5.2c-0.4,0.4-1,0.4-1.4,0c-0.4-0.4-0.4-1,0-1.4     c3.7-3.7,8.7-5.8,14-5.8c2.6,0,5.2,0.5,7.6,1.5c2.4,1,4.5,2.4,6.4,4.3C47.4,13.4,47.4,14,47,14.4z"/></g><g><path d="M43.7,16.3c0.4,0.4,0.4,1,0,1.4c-0.4,0.4-1,0.4-1.4,0c-2.5-2.5-5.7-3.8-9.2-3.8c-3.5,0-6.8,1.4-9.2,3.8     c-0.4,0.4-1,0.4-1.4,0c-0.4-0.4-0.4-1,0-1.4c2.8-2.8,6.6-4.4,10.6-4.4c2,0,4,0.4,5.8,1.1C40.6,13.8,42.2,14.9,43.7,16.3z"/></g><g><path d="M40.3,19.6c0.4,0.4,0.4,1,0,1.4c-0.4,0.4-1,0.4-1.4,0c-3.3-3.3-8.6-3.3-11.8,0c-0.4,0.4-1,0.4-1.4,0     c-0.4-0.4-0.4-1,0-1.4C29.7,15.6,36.3,15.6,40.3,19.6z"/></g></g><g><g><circle cx="22.3" cy="48.9" r="0.9"/></g><g><circle cx="45.6" cy="41.6" r="0.9"/></g><g><circle cx="43" cy="47.5" r="0.9"/></g><g><circle cx="33.6" cy="47" r="0.9"/></g><g><path d="M65.5,44.5l-0.7-4.7c-0.1-0.5-0.4-0.8-0.9-0.9c-0.5-0.1-1-0.1-1.5-0.2c-1.6-0.2-3.5-0.4-5.7-1.5c-3.7-2-11-5.3-18.4-4.6     c-1.2-0.1-10.8-0.6-17.2,3.6c-3.9,2.5-5,3.1-6.5,3.3C1.9,41.3,1,43.2,0.8,44.1l-1.4,3.2c-0.1,0.1-0.1,0.3-0.1,0.4v5.9     c0,0.5,0.4,1,0.9,1l5.6,0.7c0.6,1.1,2.2,3.5,5.2,3.5c0.6,0.1,3.4,0.2,5.8-3.1h28.6c0.7,1.1,2.3,3.1,5,3.1c0.1,0,0.3,0,0.4,0     c0.2,0,3.7,0,5.8-4.1l7.2-1.1c0.2,0,0.3-0.1,0.5-0.2C65.9,52.2,68,48.9,65.5,44.5z M12.7,54.2c-1.7,0-3.1-1.4-3.1-3.1     c0-0.5,0.1-1,0.4-1.4l-1.7-1.2H2c-0.6,0-1-0.4-1-1c0-0.6,0.4-1,1-1h6.5c0.2,0,0.4,0.1,0.6,0.2l2.4,1.6c0.4-0.2,0.8-0.2,1.2-0.2     c1.7,0,3.1,1.4,3.1,3.1C15.7,52.9,14.3,54.2,12.7,54.2z M22.3,51.9c-1.6,0-2.9-1.3-2.9-2.9c0-1.3,0.8-2.3,1.9-2.7v-1.2L18.2,44     c-0.4-0.1-0.7-0.5-0.7-0.9v-3.3c0-0.6,0.4-1,1-1s1,0.4,1,1v2.6l3.1,1.1c0.4,0.1,0.7,0.5,0.7,0.9v1.9c1.1,0.4,1.9,1.5,1.9,2.7     C25.2,50.5,23.9,51.9,22.3,51.9z M29.4,54.2c0,0.6-0.4,1-1,1s-1-0.4-1-1V43.8c-1.1-0.4-1.9-1.5-1.9-2.7c0-1.6,1.3-2.9,2.9-2.9     c1.6,0,2.9,1.3,2.9,2.9c0,1.3-0.8,2.3-1.9,2.7V54.2z M33.6,49.9c-1.6,0-2.9-1.3-2.9-2.9c0-1.6,1.3-2.9,2.9-2.9     c0.8,0,1.5,0.3,2,0.8l2-1.2v-9.5c0-0.6,0.4-1,1-1c0.6,0,1,0.4,1,1v10c0,0.3-0.2,0.7-0.5,0.8l-2.6,1.6c0,0.1,0,0.2,0,0.3     C36.5,48.6,35.2,49.9,33.6,49.9z M43,50.4c-0.4,0-0.9-0.1-1.2-0.3l-1.7,1.4v2.7c0,0.6-0.4,1-1,1c-0.6,0-1-0.4-1-1v-3.2     c0-0.3,0.1-0.6,0.4-0.8l1.9-1.6c-0.2-0.4-0.3-0.8-0.3-1.2c0-1.6,1.3-2.9,2.9-2.9c1.6,0,2.9,1.3,2.9,2.9     C45.9,49.1,44.6,50.4,43,50.4z M45.6,44.5c-1.6,0-2.9-1.3-2.9-2.9c0-1.6,1.3-2.9,2.9-2.9c0.4,0,0.8,0.1,1.1,0.2l2.8-3.4     c0.4-0.4,1-0.5,1.4-0.1c0.4,0.3,0.5,1,0.1,1.4l-2.8,3.5c0.2,0.4,0.3,0.8,0.3,1.3C48.6,43.2,47.2,44.5,45.6,44.5z M64,48.5h-9.1     L52.7,50c0.1,0.3,0.1,0.6,0.1,0.9c0,1.6-1.3,2.9-2.9,2.9c-1.6,0-2.9-1.3-2.9-2.9c0-1.6,1.3-2.9,2.9-2.9c0.6,0,1.1,0.2,1.6,0.5     l2.4-1.7c0.2-0.1,0.4-0.2,0.6-0.2H64c0.6,0,1,0.4,1,1C65,48.1,64.6,48.5,64,48.5z"/></g><g><circle cx="28.4" cy="41.1" r="0.9"/></g><g><circle cx="50" cy="50.9" r="0.9"/></g><g><circle cx="12.7" cy="51.2" r="1.1"/></g></g></g><text x="0" y="81" fill="#000000" font-size="5px" font-weight="bold" font-family="'Helvetica Neue', Helvetica, Arial-Unicode, Arial, Sans-serif">Created by ProSymbols</text><text x="0" y="86" fill="#000000" font-size="5px" font-weight="bold" font-family="'Helvetica Neue', Helvetica, Arial-Unicode, Arial, Sans-serif">from the Noun Project</text></svg>